<svg width="696" height="505" viewBox="0 0 696 505" fill="none" xmlns="http://www.w3.org/2000/svg">
<path d="M99.45 97.7972L197.55 72.1172C198.34 71.9072 199.16 72.3672 199.39 73.1572L218.81 138.277C219.06 139.107 218.56 139.987 217.71 140.187L115.76 165.087C114.94 165.287 114.12 164.787 113.92 163.967L98.35 99.6272C98.16 98.8172 98.64 98.0072 99.45 97.7972Z" fill="#EBEBEB"/>
<path d="M98 98.1768L136.03 47.2768C137.64 45.1168 140.54 44.3968 142.98 45.5368L198.97 71.7468" fill="#EBEBEB"/>
<path d="M104.05 100.635L98.2998 78.6553L187.68 55.9453L193.62 78.5153L158.34 124.695L104.05 100.635Z" fill="#FAFAFA"/>
<path d="M104.05 100.636C104.05 100.636 104.39 100.776 105.05 101.066C105.71 101.356 106.68 101.776 107.94 102.336C110.47 103.456 114.19 105.096 118.93 107.186C128.41 111.376 141.98 117.376 158.37 124.626L158.28 124.646C168.49 111.276 180.56 95.4659 193.54 78.4659L193.52 78.5459C192.68 75.3459 191.78 71.9359 190.88 68.4959C189.76 64.2559 188.66 60.0559 187.59 55.9659L187.7 56.0259C150.59 65.4459 118.35 73.6259 98.3102 78.7059L98.3502 78.6459C100.16 85.5959 101.59 91.0859 102.56 94.8459C103.05 96.7259 103.42 98.1759 103.67 99.1559C103.79 99.6459 103.89 100.016 103.95 100.266C104.02 100.506 104.05 100.636 104.05 100.636C104.05 100.636 104.01 100.516 103.95 100.266C103.88 100.016 103.78 99.6459 103.66 99.1659C103.4 98.1859 103.02 96.7459 102.52 94.8759C101.53 91.1159 100.08 85.6159 98.2502 78.6759L98.2402 78.6259L98.2802 78.6059C118.31 73.5059 150.55 65.3059 187.65 55.8559L187.74 55.8359L187.76 55.9259C188.84 60.0159 189.94 64.2059 191.06 68.4559C191.97 71.8959 192.86 75.3059 193.7 78.5059L193.71 78.5459L193.68 78.5859C180.69 95.5859 168.61 111.386 158.4 124.756L158.36 124.806L158.3 124.786C141.91 117.506 128.34 111.486 118.86 107.276C114.13 105.166 110.42 103.516 107.89 102.396C106.63 101.836 105.67 101.406 105.01 101.106C104.38 100.796 104.05 100.636 104.05 100.636Z" fill="#E0E0E0"/>
<path d="M168.67 75.907C168.68 75.957 158.67 78.627 146.31 81.877C133.94 85.127 123.91 87.717 123.9 87.677C123.89 87.627 133.9 84.957 146.27 81.707C158.62 78.457 168.65 75.857 168.67 75.907Z" fill="#E0E0E0"/>
<path d="M179.1 84.2076C179.11 84.2576 165.6 87.8176 148.92 92.1676C132.23 96.5176 118.7 99.9976 118.69 99.9476C118.68 99.8976 132.19 96.3376 148.88 91.9876C165.55 87.6476 179.08 84.1576 179.1 84.2076Z" fill="#E0E0E0"/>
<path d="M181.71 94.4967C181.72 94.5467 168.83 97.9466 152.92 102.097C137 106.247 124.09 109.567 124.08 109.517C124.07 109.467 136.96 106.067 152.88 101.917C168.78 97.7666 181.7 94.4467 181.71 94.4967Z" fill="#E0E0E0"/>
<path d="M172.68 106.396C172.68 106.396 172.65 106.406 172.59 106.426C172.52 106.446 172.43 106.476 172.33 106.506C172.09 106.576 171.75 106.666 171.32 106.786C170.43 107.026 169.16 107.366 167.59 107.796C164.43 108.646 160.09 109.816 155.29 111.106C150.49 112.416 146.13 113.556 142.97 114.366C141.4 114.766 140.12 115.086 139.23 115.316C138.8 115.426 138.46 115.506 138.21 115.566C138.1 115.586 138.01 115.606 137.94 115.626C137.88 115.636 137.85 115.646 137.85 115.636C137.85 115.636 137.88 115.626 137.94 115.606C138.01 115.586 138.1 115.556 138.2 115.526C138.44 115.456 138.78 115.366 139.21 115.246C140.1 115.006 141.37 114.666 142.94 114.236C146.1 113.386 150.44 112.216 155.24 110.926C160.04 109.616 164.4 108.486 167.56 107.666C169.13 107.266 170.41 106.946 171.3 106.716C171.73 106.606 172.07 106.526 172.32 106.466C172.43 106.446 172.52 106.426 172.59 106.406C172.64 106.406 172.67 106.396 172.68 106.396Z" fill="#E0E0E0"/>
<path d="M163.48 117.977C163.49 118.027 160.61 118.797 157.05 119.707C153.49 120.617 150.59 121.307 150.58 121.257C150.57 121.207 153.45 120.437 157.01 119.527C160.57 118.627 163.47 117.927 163.48 117.977Z" fill="#E0E0E0"/>
<path d="M218.56 139.616C218.56 139.626 218.45 139.606 218.25 139.566C218.04 139.516 217.74 139.446 217.35 139.356C216.56 139.156 215.4 138.866 213.91 138.496C210.93 137.726 206.62 136.616 201.3 135.246C195.98 133.856 189.65 132.196 182.62 130.356C179.11 129.426 175.42 128.456 171.59 127.446C169.68 126.936 167.73 126.426 165.76 125.906C165.27 125.776 164.77 125.646 164.27 125.516C163.77 125.386 163.27 125.246 162.78 125.146C161.79 124.936 160.77 124.906 159.76 125.016C157.73 125.246 155.81 126.136 154.35 127.486C152.87 128.896 151.42 130.286 149.99 131.646C147.13 134.376 144.37 137.006 141.74 139.516C136.47 144.526 131.73 149.036 127.74 152.826C123.74 156.596 120.51 159.646 118.27 161.766C117.15 162.806 116.27 163.626 115.68 164.176C115.38 164.446 115.15 164.646 115 164.796C114.84 164.936 114.76 164.996 114.75 164.996C114.74 164.986 114.81 164.906 114.96 164.756C115.11 164.606 115.32 164.386 115.61 164.096C116.19 163.526 117.04 162.686 118.13 161.616C120.34 159.476 123.53 156.376 127.48 152.556C131.44 148.746 136.16 144.206 141.4 139.166C144.02 136.646 146.78 134.006 149.63 131.266C151.06 129.896 152.52 128.506 154 127.096C155.54 125.666 157.57 124.726 159.71 124.486C160.78 124.366 161.86 124.406 162.91 124.626C163.44 124.736 163.93 124.876 164.43 125.006C164.93 125.136 165.42 125.266 165.92 125.396C167.89 125.916 169.7 126.956 171.61 127.456C175.43 128.476 179.25 128.936 182.77 129.876C189.79 131.756 196.11 133.456 201.42 134.876C206.72 136.316 211.01 137.486 213.99 138.296C215.47 138.706 216.62 139.036 217.4 139.256C217.79 139.366 218.08 139.456 218.28 139.516C218.47 139.566 218.57 139.606 218.56 139.616Z" fill="#E0E0E0"/>
<path d="M101.44 258.336C107.81 256.816 113.06 251.356 114.29 244.116C115.89 234.626 109.97 225.726 101.08 224.216C92.19 222.716 83.68 229.186 82.08 238.676C80.85 245.986 84.1 252.906 89.72 256.406C64.3 256.066 61 283.206 61 283.206L119.6 293.106C119.6 293.116 125.41 266.086 101.44 258.336Z" fill="#66ACFF"/>
<path d="M596.53 37.0001L499 74.5156L524.284 140.248L621.814 102.732L596.53 37.0001Z" fill="#FFB800"/>
<path d="M597.151 37.6564C597.181 37.6764 596.981 38.0964 596.581 38.8764C596.131 39.7364 595.531 40.8764 594.781 42.2964C593.131 45.3464 590.831 49.5964 588.001 54.8164C582.151 65.4264 574.141 79.9564 565.271 96.0464L565.081 96.3864L564.711 96.2664C564.431 96.1764 564.121 96.0764 563.811 95.9864C546.101 90.3264 530.081 85.1964 518.361 81.4564C512.631 79.5764 507.961 78.0464 504.621 76.9464C503.071 76.4164 501.841 75.9964 500.901 75.6764C500.051 75.3764 499.611 75.2064 499.621 75.1764C499.631 75.1464 500.091 75.2564 500.961 75.4964C501.911 75.7764 503.171 76.1364 504.731 76.5964C508.101 77.6264 512.801 79.0564 518.561 80.8164C530.301 84.4964 546.351 89.5264 564.091 95.0864C564.401 95.1864 564.701 95.2764 564.991 95.3664L564.431 95.5864C573.401 79.5464 581.501 65.0764 587.411 54.4964C590.351 49.3364 592.741 45.1364 594.451 42.1264C595.261 40.7364 595.911 39.6264 596.401 38.7864C596.871 38.0364 597.131 37.6464 597.151 37.6564Z" fill="#443434"/>
<path d="M524.912 140.916C524.662 140.826 528.532 128.996 533.552 114.486C538.572 99.9756 542.842 88.2856 543.092 88.3656C543.342 88.4556 539.472 100.286 534.452 114.796C529.432 129.306 525.162 140.996 524.912 140.916Z" fill="#443434"/>
<path d="M575.192 75.076C575.322 74.856 586.012 81.006 599.062 88.826C612.112 96.646 622.582 103.166 622.442 103.396C622.312 103.616 611.622 97.466 598.572 89.646C585.522 81.826 575.052 75.306 575.192 75.076Z" fill="#443434"/>
<path d="M554.373 206L549 251.643L616.719 259.614L622.092 213.971L554.373 206Z" fill="#EBEBEB"/>
<path d="M622.259 214.531C622.269 214.551 622.029 214.731 621.559 215.061C621.039 215.421 620.339 215.901 619.479 216.491C617.599 217.751 614.979 219.501 611.759 221.661C605.159 226.011 596.119 231.961 586.099 238.561L585.889 238.701L585.709 238.521C585.569 238.381 585.429 238.231 585.279 238.081C576.769 229.431 569.079 221.601 563.449 215.881C560.709 213.051 558.479 210.751 556.889 209.101C556.159 208.331 555.569 207.701 555.129 207.241C554.729 206.811 554.529 206.581 554.549 206.561C554.569 206.551 554.799 206.751 555.219 207.151C555.679 207.601 556.299 208.191 557.069 208.931C558.699 210.551 560.979 212.801 563.769 215.571C569.429 221.261 577.169 229.041 585.729 237.641C585.879 237.791 586.029 237.941 586.159 238.081L585.769 238.041C595.819 231.511 604.899 225.611 611.529 221.301C614.789 219.211 617.449 217.511 619.359 216.301C620.249 215.751 620.959 215.301 621.499 214.971C621.979 214.661 622.249 214.511 622.259 214.531Z" fill="#E0E0E0"/>
<path d="M549.17 252.201C549.05 252.081 554.88 246.421 562.19 239.571C569.5 232.721 575.52 227.261 575.63 227.391C575.75 227.511 569.92 233.171 562.61 240.031C555.3 246.871 549.28 252.331 549.17 252.201Z" fill="#E0E0E0"/>
<path d="M598.2 229.46C598.35 229.37 602.65 236.17 607.8 244.65C612.96 253.13 617.02 260.08 616.88 260.17C616.73 260.26 612.43 253.46 607.27 244.97C602.12 236.5 598.06 229.55 598.2 229.46Z" fill="#E0E0E0"/>
<path d="M591.871 374.275C596.941 371.655 602.921 371.315 608.551 372.245C611.581 372.745 614.731 373.655 616.791 375.925C618.851 378.195 619.241 382.195 616.871 384.155C615.461 385.315 613.501 385.495 611.671 385.475C607.261 385.425 602.371 384.645 598.851 387.305C596.841 388.815 595.501 391.335 593.101 392.075C590.751 392.805 588.101 391.415 586.851 389.295C585.601 387.175 585.561 384.525 586.141 382.135C586.151 382.125 586.761 376.915 591.871 374.275Z" fill="#EBEBEB"/>
<path d="M580.251 351.835C583.351 356.265 589.381 354.795 592.181 352.095C594.981 349.395 596.161 345.475 597.231 341.735C599.691 333.195 602.161 324.235 600.341 315.545C599.791 312.945 598.821 310.355 596.991 308.425C595.161 306.495 592.351 305.345 589.791 306.025C586.751 306.825 584.861 309.805 583.501 312.635C579.491 320.965 577.361 330.185 577.331 339.435C577.311 343.745 577.821 348.275 580.251 351.835Z" fill="#EBEBEB"/>
<path d="M571.731 358.194C575.101 354.194 575.741 348.364 574.241 343.354C572.741 338.344 569.361 334.084 565.451 330.604C560.871 326.524 555.501 323.354 549.721 321.324C547.441 320.524 545.041 319.894 542.641 320.124C540.241 320.354 537.821 321.584 536.701 323.714C535.041 326.874 536.631 330.704 538.351 333.824C541.381 339.334 544.831 344.594 548.681 349.564C551.781 353.554 555.331 357.494 560.051 359.304C564.771 361.104 569.671 360.894 572.181 357.624" fill="#EBEBEB"/>
<path d="M580.041 418.675C580.101 418.675 580.191 417.965 580.321 416.665C580.461 415.195 580.641 413.355 580.851 411.175C581.111 408.865 581.441 406.115 582.091 403.115C582.731 400.125 583.731 396.885 585.021 393.605C586.351 390.335 587.981 387.375 589.881 384.995C591.771 382.615 593.961 380.885 596.021 379.895C598.071 378.885 599.921 378.465 601.191 378.285C602.471 378.155 603.191 378.055 603.191 377.995C603.191 377.935 602.471 377.925 601.151 377.965C599.841 378.055 597.921 378.385 595.761 379.365C593.591 380.325 591.261 382.085 589.281 384.515C587.291 386.935 585.601 389.975 584.251 393.295C582.941 396.635 581.951 399.905 581.341 402.965C580.731 406.015 580.451 408.795 580.271 411.125C580.101 413.455 580.031 415.345 580.001 416.655C579.971 417.945 579.981 418.665 580.041 418.675Z" fill="#E0E0E0"/>
<path d="M580.421 414.445C580.451 414.445 580.471 414.125 580.471 413.515C580.471 412.815 580.471 411.925 580.461 410.845C580.451 408.525 580.451 405.175 580.581 401.025C580.791 392.735 581.501 383.825 582.881 371.255C584.181 359.435 585.941 345.675 587.781 336.735C588.181 334.705 588.581 332.865 588.951 331.265C589.311 329.655 589.611 328.275 589.911 327.155C590.161 326.105 590.371 325.245 590.531 324.555C590.661 323.955 590.721 323.645 590.691 323.635C590.661 323.625 590.551 323.925 590.371 324.515C590.171 325.185 589.911 326.035 589.591 327.075C589.251 328.185 588.891 329.565 588.491 331.165C588.071 332.765 587.631 334.585 587.201 336.615C585.371 344.715 583.441 356.045 582.041 368.645C580.661 381.245 580.041 392.715 579.981 401.015C579.931 405.165 580.021 408.525 580.121 410.845C580.191 411.925 580.241 412.815 580.281 413.515C580.351 414.125 580.391 414.445 580.421 414.445Z" fill="#E0E0E0"/>
<path d="M580.47 392.316C580.53 392.316 580.52 391.326 580.45 389.526C580.35 387.736 580.101 385.136 579.601 381.966C579.061 378.796 578.32 375.036 577.14 370.956C576.63 369.086 575.43 364.616 572.53 357.926C568.71 348.866 563.52 341.456 559 336.866C557.94 335.646 556.761 334.766 555.821 333.906C555.331 333.496 554.9 333.086 554.46 332.756C554.02 332.456 553.61 332.166 553.23 331.906C551.74 330.886 550.91 330.356 550.88 330.406C550.75 330.586 554.21 332.626 558.58 337.276C562.93 341.916 567.98 349.276 571.77 358.266C573.88 363.136 575.36 367.486 576.4 371.176C577.61 375.226 578.41 378.946 579.02 382.086C579.6 385.226 579.931 387.796 580.131 389.576C580.301 391.336 580.42 392.326 580.47 392.316Z" fill="#E0E0E0"/>
<path d="M559.091 431.346L561.311 461.716H600.321L602.541 431.346H559.091Z" fill="#E0E0E0"/>
<path d="M607.19 419.375H555.32V431.345H607.19V419.375Z" fill="#E0E0E0"/>
<path d="M555.32 460.555V463.875H557.76H606.34V460.555H555.32Z" fill="#EBEBEB"/>
<path d="M560.151 469.715L557.761 463.875H604.481L601.691 469.715H560.151Z" fill="#E0E0E0"/>
<path d="M601.82 441.276C601.83 441.286 601.77 441.376 601.64 441.556C601.49 441.766 601.29 442.016 601.06 442.326C600.51 443.036 599.74 444.006 598.79 445.236L598.69 445.366L598.59 445.226C597.16 443.246 595.25 440.606 593.01 437.506H593.33C591.67 439.856 589.82 442.476 587.83 445.286L587.66 445.526L587.47 445.296C585.44 442.886 583.24 440.256 580.95 437.536H581.33C581.22 437.676 581.09 437.836 580.97 437.986C578.95 440.526 576.99 442.976 575.14 445.296L574.95 445.536L574.77 445.286C572.79 442.486 570.94 439.866 569.27 437.506L569.59 437.526C566.88 440.616 564.58 443.236 562.82 445.246L562.7 445.386L562.61 445.236C561.72 443.736 561.01 442.536 560.49 441.676C560.27 441.286 560.09 440.976 559.95 440.726C559.83 440.506 559.77 440.396 559.78 440.386C559.79 440.376 559.87 440.486 560.01 440.686C560.17 440.926 560.37 441.226 560.61 441.596C561.15 442.446 561.9 443.626 562.84 445.096L562.63 445.076C564.37 443.046 566.63 440.386 569.3 437.266L569.47 437.066L569.62 437.276C571.31 439.636 573.17 442.236 575.17 445.026L574.8 445.016C576.65 442.696 578.6 440.236 580.62 437.696C580.74 437.546 580.87 437.386 580.98 437.246L581.17 437.016L581.36 437.246C583.64 439.976 585.84 442.596 587.86 445.016L587.49 445.026C589.5 442.226 591.36 439.616 593.04 437.276L593.2 437.046L593.36 437.276C595.56 440.416 597.43 443.086 598.83 445.086L598.63 445.076C599.63 443.886 600.42 442.936 600.99 442.246C601.25 441.946 601.46 441.706 601.62 441.516C601.73 441.346 601.81 441.266 601.82 441.276Z" fill="#F5F5F5"/>
<path d="M603.081 431.144C603.081 431.274 593.301 431.384 581.251 431.384C569.191 431.384 559.411 431.274 559.411 431.144C559.411 431.014 569.181 430.904 581.251 430.904C593.311 430.904 603.081 431.014 603.081 431.144Z" fill="#F5F5F5"/>
<path d="M605.061 464.195C605.061 464.325 594.441 464.435 581.331 464.435C568.221 464.435 557.601 464.325 557.601 464.195C557.601 464.065 568.221 463.955 581.331 463.955C594.431 463.955 605.061 464.065 605.061 464.195Z" fill="#F5F5F5"/>
<path d="M387.3 468.377L231.29 468.457C218.73 468.467 208.54 458.287 208.53 445.727L208.34 94.3169C208.33 79.9969 219.94 68.3769 234.26 68.3769L387.38 68.2969C400.08 68.2869 410.38 78.5769 410.38 91.2769L410.57 445.087C410.58 457.947 400.16 468.367 387.3 468.377Z" fill="#455A64"/>
<path d="M211.71 437.626L211.53 99.2363C211.52 83.9563 223.9 71.5663 239.18 71.5563L379.52 71.4863C394.8 71.4763 407.19 83.8563 407.2 99.1363L407.38 437.526C407.39 452.806 395.01 465.196 379.73 465.206L239.39 465.276C224.11 465.276 211.72 452.906 211.71 437.626Z" fill="#263238"/>
<path d="M294.851 84.1372C293.611 84.1372 292.601 83.1272 292.601 81.8872C292.601 80.6472 293.611 79.6372 294.851 79.6372L323.751 79.6172C324.991 79.6172 326.001 80.6272 326.001 81.8672C326.001 83.1072 324.991 84.1172 323.751 84.1172L294.851 84.1372Z" fill="#455A64"/>
<path d="M279.36 84.1465C278.12 84.1465 277.11 83.1365 277.11 81.8965C277.11 80.6565 278.12 79.6465 279.36 79.6465C280.6 79.6465 281.61 80.6565 281.61 81.8965C281.6 83.1365 280.59 84.1465 279.36 84.1465Z" fill="#455A64"/>
<path d="M287.63 84.1367C286.39 84.1367 285.38 83.1267 285.38 81.8867C285.38 80.6467 286.39 79.6367 287.63 79.6367C288.87 79.6367 289.88 80.6467 289.88 81.8867C289.87 83.1267 288.86 84.1367 287.63 84.1367Z" fill="#455A64"/>
<path d="M339.36 84.1074C338.12 84.1074 337.11 83.0974 337.11 81.8574C337.11 80.6174 338.12 79.6074 339.36 79.6074C340.6 79.6074 341.61 80.6174 341.61 81.8574C341.61 83.1074 340.6 84.1074 339.36 84.1074Z" fill="#455A64"/>
<path d="M331.091 84.1172C329.851 84.1172 328.841 83.1072 328.841 81.8672C328.841 80.6272 329.851 79.6172 331.091 79.6172C332.331 79.6172 333.341 80.6272 333.341 81.8672C333.341 83.1072 332.331 84.1172 331.091 84.1172Z" fill="#455A64"/>
<path d="M380.99 76.1172L353.79 76.1272C351.15 76.1272 348.83 77.8672 348.1 80.3872L345.88 88.0072C345.06 90.8272 342.46 92.7772 339.5 92.7772L279.24 92.8072C276.29 92.8072 273.68 90.8672 272.86 88.0472L270.63 80.4272C269.89 77.9072 267.57 76.1772 264.93 76.1772L237.73 76.1872C225.77 76.1972 216.08 85.8472 216.08 97.7472L216.26 438.367C216.27 450.267 225.97 459.907 237.93 459.897L381.18 459.817C393.14 459.807 402.83 450.157 402.83 438.257L402.65 97.6372C402.65 85.7472 392.95 76.1072 380.99 76.1172Z" fill="#FAFAFA"/>
<path d="M410.41 155.236C411.14 155.236 411.73 155.826 411.73 156.556L411.75 199.886C411.75 200.616 411.16 201.206 410.43 201.206L410.41 155.236Z" fill="#455A64"/>
<path d="M208.39 183.688C207.63 183.688 207.02 184.307 207.02 185.057L207.03 211.428C207.03 212.188 207.65 212.798 208.4 212.798L208.39 183.688Z" fill="#455A64"/>
<path d="M208.37 145.646C207.61 145.646 207 146.266 207 147.016L207.01 173.386C207.01 174.146 207.63 174.756 208.38 174.756L208.37 145.646Z" fill="#455A64"/>
<path d="M208.36 117.098C207.71 117.098 207.18 117.628 207.18 118.278L207.19 129.448C207.19 130.098 207.72 130.628 208.37 130.628L208.36 117.098Z" fill="#455A64"/>
<path d="M358.74 87.2051H357.35V89.1551H358.74V87.2051Z" fill="white"/>
<path d="M360.999 86.3359H359.609V89.1459H360.999V86.3359Z" fill="white"/>
<path d="M363.259 85.6855H361.869V89.1455H363.259V85.6855Z" fill="white"/>
<path d="M365.52 84.4258H364.13V89.1458H365.52V84.4258Z" fill="white"/>
<path d="M386.01 89.2354H379.04C378.76 89.2354 378.54 89.0154 378.54 88.7354V85.2754C378.54 84.9954 378.76 84.7754 379.03 84.7754H386C386.03 84.7754 386.07 84.7854 386.09 84.8154C386.11 84.8354 386.13 84.8754 386.13 84.9054V86.0454H386.88C386.95 86.0454 387.01 86.1054 387.01 86.1754V87.8454C387.01 87.9154 386.95 87.9754 386.88 87.9754H386.13V89.1154C386.13 89.1754 386.08 89.2354 386.01 89.2354ZM385.88 85.0254H379.04C378.91 85.0254 378.8 85.1354 378.8 85.2654V88.7254C378.8 88.8554 378.91 88.9654 379.04 88.9654H385.88V87.8254C385.88 87.7554 385.94 87.6954 386.01 87.6954H386.76V86.2854H386.01C385.94 86.2854 385.88 86.2254 385.88 86.1554V85.0254Z" fill="white"/>
<path d="M379.36 88.4157V85.6057L385.31 85.5957V86.8657V87.1457V88.4157H379.36Z" fill="white"/>
<path d="M372.16 88.9768C372.16 88.6968 371.93 88.4668 371.65 88.4668C371.37 88.4668 371.14 88.6968 371.14 88.9768C371.14 89.2568 371.37 89.4868 371.65 89.4868C371.93 89.4868 372.16 89.2568 372.16 88.9768Z" fill="white"/>
<path d="M369.91 87.7554L370.56 88.4054C370.84 88.1254 371.22 87.9554 371.65 87.9554C372.07 87.9554 372.46 88.1254 372.74 88.4054L373.39 87.7554C372.94 87.3154 372.33 87.0354 371.65 87.0354C370.97 87.0254 370.36 87.3054 369.91 87.7554Z" fill="white"/>
<path d="M371.65 85.5859C370.57 85.5859 369.6 86.0259 368.89 86.7359L369.54 87.3859C370.08 86.8459 370.83 86.5059 371.65 86.5059C372.47 86.5059 373.22 86.8359 373.76 87.3759L374.41 86.7259C373.7 86.0159 372.73 85.5859 371.65 85.5859Z" fill="white"/>
<path d="M367.83 85.6759L368.48 86.3259C369.29 85.5159 370.41 85.0159 371.65 85.0059C372.89 85.0059 374.01 85.5059 374.82 86.3159L375.47 85.6659C374.49 84.6859 373.14 84.0859 371.65 84.0859C370.16 84.0859 368.81 84.6959 367.83 85.6759Z" fill="white"/>
<path d="M254.491 171.307C254.431 178.427 248.611 184.147 241.491 184.097C234.371 184.037 228.651 178.217 228.701 171.097C228.761 163.977 234.581 158.257 241.701 158.307C248.831 158.367 254.551 164.187 254.491 171.307Z" fill="#FFC805"/>
<path d="M318.921 161.377C318.921 161.517 306.961 161.537 292.211 161.417C277.461 161.297 265.501 161.077 265.511 160.937C265.511 160.797 277.471 160.777 292.221 160.897C306.971 161.017 318.931 161.237 318.921 161.377Z" fill="#263238"/>
<path d="M362.51 173.608C362.51 173.748 340.71 173.688 313.82 173.468C286.93 173.248 265.13 172.948 265.13 172.808C265.13 172.668 286.93 172.728 313.82 172.948C340.71 173.168 362.51 173.458 362.51 173.608Z" fill="#E0E0E0"/>
<path d="M362.431 183.217C362.431 183.357 340.631 183.297 313.741 183.077C286.851 182.857 265.051 182.557 265.051 182.417C265.051 182.277 286.851 182.337 313.741 182.557C340.631 182.777 362.431 183.067 362.431 183.217Z" fill="#E0E0E0"/>
<path d="M391.17 159.527C391.17 159.667 386.46 159.747 380.64 159.697C374.83 159.647 370.12 159.497 370.12 159.347C370.12 159.207 374.83 159.127 380.65 159.177C386.46 159.227 391.17 159.387 391.17 159.527Z" fill="#263238"/>
<path d="M383.01 172.937L383.88 174.737C384.03 175.047 384.32 175.267 384.67 175.317L386.65 175.617C387.51 175.747 387.85 176.807 387.22 177.417L385.78 178.807C385.53 179.047 385.41 179.397 385.47 179.737L385.79 181.717C385.93 182.577 385.02 183.227 384.26 182.807L382.5 181.857C382.2 181.697 381.83 181.687 381.52 181.847L379.74 182.767C378.97 183.167 378.07 182.507 378.23 181.647L378.58 179.677C378.64 179.337 378.53 178.987 378.29 178.747L376.87 177.337C376.25 176.727 376.6 175.667 377.47 175.547L379.45 175.277C379.79 175.227 380.09 175.017 380.25 174.707L381.15 172.917C381.51 172.147 382.63 172.157 383.01 172.937Z" fill="#FFC805"/>
<path d="M333.18 160.797C333.17 162.137 332.08 163.207 330.74 163.197C329.4 163.187 328.33 162.097 328.34 160.757C328.35 159.417 329.44 158.347 330.78 158.357C332.11 158.367 333.19 159.467 333.18 160.797Z" fill="#FFC805"/>
<path d="M401.92 137.447C401.92 137.587 360.26 137.367 308.89 136.947C257.5 136.527 215.86 136.067 215.86 135.927C215.86 135.787 257.51 136.007 308.9 136.427C360.27 136.847 401.93 137.307 401.92 137.447Z" fill="#E0E0E0"/>
<path d="M401.38 204.066C401.38 204.206 359.72 203.986 308.35 203.566C256.96 203.146 215.32 202.686 215.32 202.546C215.32 202.406 256.97 202.626 308.36 203.046C359.73 203.466 401.38 203.926 401.38 204.066Z" fill="#E0E0E0"/>
<path d="M249.622 313.331C254.656 308.298 254.656 300.136 249.622 295.102C244.588 290.068 236.427 290.068 231.393 295.102C226.359 300.136 226.359 308.297 231.393 313.331C236.427 318.365 244.588 318.365 249.622 313.331Z" fill="#FFC805"/>
<path d="M317.83 294.397C317.83 294.537 305.87 294.557 291.12 294.437C276.37 294.317 264.41 294.097 264.42 293.957C264.43 293.817 276.38 293.797 291.13 293.917C305.88 294.037 317.84 294.257 317.83 294.397Z" fill="#263238"/>
<path d="M361.419 306.627C361.419 306.767 339.619 306.707 312.729 306.487C285.839 306.267 264.039 305.967 264.039 305.827C264.039 305.687 285.839 305.747 312.729 305.967C339.619 306.187 361.419 306.477 361.419 306.627Z" fill="#E0E0E0"/>
<path d="M361.34 316.237C361.34 316.377 339.54 316.317 312.65 316.097C285.76 315.877 263.96 315.577 263.96 315.437C263.96 315.297 285.76 315.357 312.65 315.577C339.54 315.797 361.34 316.087 361.34 316.237Z" fill="#E0E0E0"/>
<path d="M390.079 292.547C390.079 292.687 385.369 292.767 379.549 292.717C373.739 292.667 369.029 292.517 369.029 292.367C369.029 292.227 373.739 292.147 379.559 292.197C385.369 292.247 390.079 292.407 390.079 292.547Z" fill="#263238"/>
<path d="M381.92 305.957L382.79 307.757C382.94 308.067 383.23 308.287 383.58 308.337L385.56 308.637C386.42 308.767 386.76 309.827 386.13 310.437L384.69 311.827C384.44 312.067 384.32 312.417 384.38 312.757L384.7 314.737C384.84 315.597 383.93 316.247 383.17 315.827L381.41 314.877C381.11 314.717 380.74 314.707 380.43 314.867L378.65 315.787C377.88 316.187 376.98 315.527 377.14 314.667L377.49 312.697C377.55 312.357 377.44 312.007 377.2 311.767L375.78 310.357C375.16 309.747 375.51 308.687 376.38 308.567L378.36 308.297C378.7 308.247 379 308.037 379.16 307.727L380.06 305.937C380.43 305.167 381.54 305.177 381.92 305.957Z" fill="#FFC805"/>
<path d="M332.018 294.265C332.279 292.954 331.427 291.68 330.116 291.42C328.805 291.159 327.532 292.011 327.271 293.322C327.011 294.633 327.862 295.906 329.173 296.167C330.484 296.427 331.758 295.575 332.018 294.265Z" fill="#FFC805"/>
<path d="M400.83 270.466C400.83 270.606 359.17 270.386 307.8 269.966C256.41 269.546 214.77 269.086 214.77 268.946C214.77 268.806 256.42 269.026 307.81 269.446C359.18 269.866 400.84 270.326 400.83 270.466Z" fill="#E0E0E0"/>
<path d="M400.289 337.087C400.289 337.227 359.279 336.957 308.699 336.487C258.109 336.007 217.109 335.507 217.109 335.367C217.109 335.227 258.109 335.497 308.699 335.967C359.279 336.447 400.289 336.947 400.289 337.087Z" fill="#E0E0E0"/>
<path d="M252.37 430.826C252.31 437.946 246.49 443.667 239.37 443.617C232.25 443.557 226.53 437.737 226.58 430.617C226.63 423.497 232.46 417.776 239.58 417.826C246.7 417.886 252.43 423.706 252.37 430.826Z" fill="#E0E0E0"/>
<path d="M316.801 420.906C316.801 421.046 304.841 421.066 290.091 420.946C275.341 420.826 263.381 420.606 263.391 420.466C263.391 420.326 275.351 420.306 290.101 420.426C304.841 420.546 316.801 420.756 316.801 420.906Z" fill="#263238"/>
<path d="M360.38 433.137C360.38 433.277 338.58 433.217 311.69 432.997C284.8 432.777 263 432.477 263 432.337C263 432.197 284.8 432.257 311.69 432.477C338.59 432.697 360.38 432.987 360.38 433.137Z" fill="#E0E0E0"/>
<path d="M360.3 442.737C360.3 442.877 338.5 442.817 311.61 442.597C284.72 442.377 262.92 442.077 262.92 441.937C262.92 441.797 284.72 441.857 311.61 442.077C338.51 442.297 360.31 442.597 360.3 442.737Z" fill="#E0E0E0"/>
<path d="M389.04 419.056C389.04 419.196 384.33 419.276 378.51 419.226C372.7 419.176 367.99 419.026 367.99 418.876C367.99 418.736 372.7 418.656 378.52 418.706C384.33 418.756 389.05 418.916 389.04 419.056Z" fill="#263238"/>
<path d="M331.05 420.327C331.04 421.667 329.95 422.737 328.61 422.727C327.27 422.717 326.2 421.627 326.21 420.287C326.22 418.947 327.31 417.877 328.65 417.887C329.99 417.897 331.06 418.987 331.05 420.327Z" fill="#FFC805"/>
<path d="M402.43 204.085L216.98 202.566L216.435 269.186L401.885 270.705L402.43 204.085Z" fill="#F5F5F5"/>
<path d="M250.55 245.521C255.583 240.487 255.583 232.326 250.55 227.292C245.516 222.258 237.354 222.258 232.321 227.292C227.287 232.326 227.287 240.487 232.321 245.521C237.354 250.555 245.516 250.555 250.55 245.521Z" fill="#455A64"/>
<path d="M318.76 226.586C318.76 226.726 306.8 226.746 292.05 226.626C277.3 226.506 265.34 226.286 265.35 226.146C265.36 226.006 277.31 225.986 292.06 226.106C306.81 226.236 318.76 226.446 318.76 226.586Z" fill="#263238"/>
<path d="M362.35 238.817C362.35 238.957 340.55 238.897 313.66 238.677C286.77 238.457 264.97 238.157 264.97 238.017C264.97 237.877 286.77 237.937 313.66 238.157C340.55 238.377 362.35 238.677 362.35 238.817Z" fill="#E0E0E0"/>
<path d="M362.27 248.426C362.27 248.566 340.47 248.506 313.58 248.286C286.69 248.066 264.89 247.766 264.89 247.626C264.89 247.486 286.69 247.546 313.58 247.766C340.47 247.986 362.27 248.286 362.27 248.426Z" fill="#E0E0E0"/>
<path d="M391.01 224.746C391.01 224.886 386.3 224.966 380.48 224.916C374.67 224.866 369.96 224.716 369.96 224.566C369.96 224.426 374.67 224.346 380.49 224.396C386.3 224.446 391.01 224.596 391.01 224.746Z" fill="#263238"/>
<path d="M382.85 238.155C382.83 238.165 382.77 238.045 382.59 237.895C382.42 237.745 382.07 237.585 381.66 237.695C381.46 237.755 381.25 237.885 381.13 238.105C381.01 238.335 380.88 238.635 380.73 238.925C380.58 239.225 380.43 239.545 380.27 239.875C380.14 240.245 379.74 240.635 379.26 240.675C378.85 240.735 378.42 240.805 377.97 240.865C377.75 240.895 377.52 240.935 377.29 240.965C377.1 240.995 376.93 241.095 376.8 241.245C376.55 241.545 376.52 242.035 376.81 242.335C377.18 242.695 377.56 243.075 377.95 243.455L378.25 243.745C378.36 243.845 378.48 243.995 378.55 244.155C378.71 244.445 378.68 244.895 378.62 245.135C378.52 245.705 378.42 246.285 378.31 246.875C378.2 247.345 378.58 247.825 379.06 247.835C379.29 247.865 379.5 247.715 379.8 247.565C380.08 247.425 380.36 247.275 380.64 247.135C380.94 247.005 381.15 246.825 381.56 246.715C381.93 246.615 382.39 246.785 382.62 246.935C383.16 247.225 383.7 247.515 384.22 247.795C384.63 248.025 385.18 247.785 385.33 247.365C385.42 247.155 385.37 246.955 385.32 246.655C385.28 246.375 385.23 246.105 385.19 245.835C385.15 245.565 385.11 245.295 385.06 245.035C385 244.735 385.06 244.375 385.23 244.115C385.42 243.825 385.62 243.705 385.8 243.515C385.98 243.345 386.16 243.175 386.34 243.005C386.52 242.835 386.69 242.675 386.87 242.515C387.02 242.375 387.11 242.215 387.15 242.035C387.22 241.675 387.03 241.295 386.73 241.125C386.45 240.975 385.99 240.965 385.64 240.885C385.27 240.825 384.93 240.765 384.6 240.705C384.26 240.675 383.91 240.485 383.73 240.225C383.55 239.945 383.49 239.725 383.38 239.505C383.01 238.645 382.81 238.165 382.85 238.155C382.88 238.135 383.14 238.585 383.57 239.415C383.68 239.605 383.79 239.885 383.93 240.065C384.09 240.265 384.33 240.395 384.65 240.415C384.98 240.455 385.33 240.505 385.7 240.555C386.08 240.635 386.44 240.595 386.92 240.795C387.36 241.015 387.65 241.555 387.56 242.095C387.52 242.365 387.37 242.625 387.18 242.805C387.01 242.975 386.84 243.135 386.66 243.305C386.48 243.475 386.31 243.645 386.13 243.825C385.96 244.005 385.73 244.185 385.64 244.335C385.53 244.515 385.5 244.715 385.54 244.935C385.58 245.195 385.63 245.465 385.68 245.735C385.73 246.005 385.77 246.285 385.82 246.555C385.86 246.805 385.95 247.185 385.81 247.525C385.58 248.215 384.69 248.605 384.01 248.235C383.48 247.955 382.94 247.665 382.39 247.375C382.11 247.205 381.93 247.155 381.68 247.205C381.48 247.245 381.16 247.455 380.89 247.575C380.61 247.725 380.33 247.865 380.05 248.005C379.9 248.075 379.79 248.145 379.62 248.225C379.45 248.305 379.25 248.345 379.05 248.335C378.25 248.325 377.64 247.495 377.82 246.765C377.93 246.175 378.03 245.595 378.14 245.035C378.21 244.725 378.21 244.565 378.12 244.345C378.05 244.165 377.83 243.995 377.63 243.785C377.24 243.395 376.86 243.005 376.49 242.635C376.04 242.155 376.09 241.385 376.49 240.955C376.69 240.735 376.96 240.595 377.24 240.545C377.48 240.515 377.71 240.485 377.93 240.455C378.38 240.395 378.81 240.345 379.23 240.295C379.59 240.255 379.85 240.035 380 239.705C380.17 239.375 380.34 239.065 380.49 238.765C380.65 238.465 380.78 238.205 380.94 237.945C381.11 237.675 381.39 237.525 381.63 237.475C382.14 237.375 382.52 237.605 382.68 237.795C382.83 238.005 382.85 238.145 382.85 238.155Z" fill="#263238"/>
<path d="M333.02 226.016C333.01 227.356 331.92 228.426 330.58 228.416C329.24 228.406 328.17 227.316 328.18 225.976C328.19 224.636 329.28 223.566 330.62 223.576C331.95 223.586 333.03 224.676 333.02 226.016Z" fill="#FFC805"/>
<path d="M402.57 336.899L217.12 335.381L216.575 402.001L402.025 403.519L402.57 336.899Z" fill="#F5F5F5"/>
<path d="M250.692 378.329C255.726 373.296 255.726 365.134 250.692 360.1C245.658 355.067 237.497 355.067 232.463 360.1C227.429 365.134 227.429 373.296 232.463 378.329C237.497 383.363 245.658 383.363 250.692 378.329Z" fill="#455A64"/>
<path d="M318.9 359.397C318.9 359.537 306.94 359.557 292.19 359.437C277.44 359.317 265.48 359.097 265.49 358.957C265.49 358.817 277.45 358.797 292.2 358.917C306.95 359.037 318.9 359.257 318.9 359.397Z" fill="#263238"/>
<path d="M362.49 371.627C362.49 371.767 340.69 371.707 313.8 371.487C286.91 371.267 265.11 370.967 265.11 370.827C265.11 370.687 286.91 370.747 313.8 370.967C340.69 371.187 362.49 371.477 362.49 371.627Z" fill="#E0E0E0"/>
<path d="M362.41 381.237C362.41 381.377 340.61 381.317 313.72 381.097C286.83 380.877 265.03 380.577 265.03 380.437C265.03 380.297 286.83 380.357 313.72 380.577C340.61 380.797 362.41 381.087 362.41 381.237Z" fill="#E0E0E0"/>
<path d="M391.151 357.547C391.151 357.687 386.441 357.767 380.621 357.717C374.811 357.667 370.101 357.517 370.101 357.367C370.101 357.227 374.811 357.147 380.631 357.197C386.441 357.247 391.151 357.407 391.151 357.547Z" fill="#263238"/>
<path d="M382.991 370.956C382.971 370.966 382.911 370.846 382.731 370.696C382.561 370.546 382.211 370.386 381.801 370.496C381.601 370.556 381.391 370.686 381.271 370.906C381.151 371.136 381.021 371.436 380.871 371.726C380.721 372.026 380.571 372.346 380.411 372.676C380.281 373.046 379.881 373.436 379.401 373.476C378.991 373.536 378.561 373.606 378.111 373.666C377.891 373.696 377.661 373.736 377.431 373.766C377.241 373.796 377.071 373.896 376.941 374.046C376.691 374.346 376.661 374.836 376.951 375.136C377.321 375.496 377.701 375.876 378.091 376.256L378.391 376.546C378.501 376.646 378.621 376.796 378.691 376.956C378.851 377.246 378.821 377.696 378.761 377.936C378.661 378.506 378.561 379.086 378.451 379.676C378.341 380.146 378.721 380.626 379.201 380.636C379.431 380.666 379.641 380.516 379.941 380.366C380.221 380.226 380.501 380.076 380.781 379.936C381.081 379.806 381.291 379.626 381.701 379.516C382.071 379.416 382.531 379.586 382.761 379.736C383.301 380.026 383.841 380.316 384.361 380.596C384.771 380.826 385.321 380.586 385.471 380.166C385.561 379.956 385.511 379.756 385.461 379.456C385.421 379.176 385.371 378.906 385.331 378.636C385.291 378.366 385.251 378.096 385.201 377.836C385.141 377.536 385.201 377.176 385.371 376.916C385.561 376.626 385.761 376.506 385.941 376.316C386.121 376.146 386.301 375.976 386.481 375.806C386.661 375.636 386.831 375.476 387.011 375.316C387.161 375.176 387.251 375.016 387.291 374.836C387.361 374.476 387.171 374.096 386.871 373.926C386.591 373.776 386.131 373.766 385.781 373.686C385.411 373.626 385.071 373.566 384.741 373.506C384.401 373.476 384.051 373.286 383.871 373.026C383.691 372.746 383.631 372.526 383.521 372.306C383.151 371.456 382.951 370.976 382.991 370.956C383.021 370.936 383.281 371.386 383.711 372.216C383.821 372.406 383.931 372.686 384.071 372.866C384.231 373.066 384.471 373.196 384.791 373.216C385.121 373.256 385.471 373.306 385.841 373.356C386.221 373.436 386.581 373.396 387.061 373.596C387.501 373.816 387.791 374.356 387.701 374.896C387.661 375.166 387.511 375.426 387.321 375.606C387.151 375.776 386.981 375.936 386.801 376.106C386.621 376.276 386.451 376.446 386.271 376.626C386.101 376.806 385.871 376.986 385.781 377.136C385.671 377.316 385.641 377.516 385.681 377.736C385.721 377.996 385.771 378.266 385.821 378.536C385.871 378.806 385.911 379.086 385.961 379.356C386.001 379.606 386.091 379.986 385.951 380.326C385.721 381.016 384.831 381.406 384.151 381.036C383.621 380.756 383.081 380.466 382.531 380.176C382.251 380.006 382.071 379.956 381.821 380.006C381.621 380.046 381.301 380.256 381.031 380.376C380.751 380.526 380.471 380.666 380.191 380.806C380.041 380.876 379.931 380.946 379.761 381.026C379.591 381.106 379.391 381.146 379.191 381.136C378.391 381.126 377.781 380.296 377.961 379.566C378.071 378.976 378.171 378.396 378.281 377.836C378.351 377.526 378.351 377.366 378.261 377.146C378.191 376.966 377.971 376.796 377.771 376.586C377.381 376.196 377.001 375.806 376.631 375.436C376.181 374.956 376.231 374.186 376.631 373.756C376.831 373.536 377.101 373.396 377.381 373.346C377.621 373.316 377.851 373.286 378.071 373.256C378.521 373.196 378.951 373.146 379.371 373.096C379.731 373.056 379.991 372.836 380.141 372.506C380.311 372.176 380.481 371.866 380.631 371.566C380.791 371.266 380.921 371.006 381.081 370.746C381.251 370.476 381.531 370.326 381.771 370.276C382.281 370.176 382.661 370.406 382.821 370.596C382.971 370.816 383.001 370.956 382.991 370.956Z" fill="#263238"/>
<path d="M333.16 358.817C333.15 360.157 332.06 361.227 330.72 361.217C329.38 361.207 328.31 360.117 328.32 358.777C328.33 357.437 329.42 356.367 330.76 356.377C332.09 356.387 333.17 357.487 333.16 358.817Z" fill="#FFC805"/>
<path d="M317.09 128.927L301.54 128.797C300.3 128.787 299.3 127.777 299.31 126.537L299.41 114.847C299.42 113.607 300.43 112.607 301.67 112.617L317.22 112.747C318.46 112.757 319.46 113.767 319.45 115.007L319.35 126.697C319.34 127.937 318.33 128.937 317.09 128.927Z" fill="#FFC805"/>
<path d="M318.37 113.368C318.4 113.388 318.18 113.688 317.75 114.208C317.33 114.728 316.7 115.468 315.92 116.378C315.1 117.318 314.17 118.378 313.16 119.548C312.63 120.148 312.08 120.768 311.51 121.408C311.2 121.738 310.98 122.048 310.59 122.398C310.2 122.728 309.66 122.898 309.14 122.838C308.62 122.798 308.12 122.498 307.81 122.128C307.51 121.798 307.21 121.478 306.92 121.158C306.34 120.518 305.79 119.908 305.25 119.318C304.22 118.168 303.27 117.108 302.44 116.188C301.65 115.288 301.01 114.558 300.58 114.048C300.15 113.538 299.92 113.238 299.95 113.218C299.98 113.198 300.25 113.438 300.73 113.918C301.21 114.388 301.88 115.088 302.71 115.948C303.56 116.848 304.53 117.878 305.6 119.008C306.14 119.588 306.71 120.198 307.29 120.828C307.58 121.148 307.88 121.468 308.18 121.788C308.45 122.098 308.78 122.288 309.18 122.328C309.57 122.368 309.96 122.248 310.25 122.008C310.52 121.758 310.83 121.378 311.12 121.078C311.7 120.438 312.25 119.828 312.79 119.238C313.84 118.098 314.8 117.058 315.64 116.138C316.46 115.258 317.12 114.558 317.59 114.078C318.07 113.598 318.34 113.348 318.37 113.368Z" fill="white"/>
<path d="M306.33 120.697C306.42 120.797 304.95 122.377 303.11 124.327C301.27 126.277 299.62 127.707 299.52 127.597C299.43 127.497 300.9 125.917 302.74 123.967C304.58 122.017 306.23 120.587 306.33 120.697Z" fill="white"/>
<path d="M319.34 127.977C319.23 128.077 317.57 126.437 315.63 124.327C313.68 122.207 312.19 120.417 312.3 120.317C312.41 120.217 314.07 121.857 316.01 123.967C317.95 126.087 319.45 127.887 319.34 127.977Z" fill="white"/>
<path d="M244.79 119.246C244.79 119.336 241.37 119.406 237.15 119.406C232.93 119.406 229.51 119.336 229.51 119.246C229.51 119.156 232.93 119.086 237.15 119.086C241.37 119.086 244.79 119.156 244.79 119.246Z" fill="#263238"/>
<path d="M244.79 123.156C244.79 123.246 241.37 123.316 237.15 123.316C232.93 123.316 229.51 123.246 229.51 123.156C229.51 123.066 232.93 122.996 237.15 122.996C241.37 122.996 244.79 123.066 244.79 123.156Z" fill="#263238"/>
<path d="M244.79 127.066C244.79 127.156 241.37 127.226 237.15 127.226C232.93 127.226 229.51 127.156 229.51 127.066C229.51 126.976 232.93 126.906 237.15 126.906C241.37 126.906 244.79 126.986 244.79 127.066Z" fill="#263238"/>
<path d="M388.2 121.736C388.15 121.736 388.16 121.366 387.99 120.726C387.82 120.106 387.39 119.206 386.47 118.506C385.57 117.806 384.1 117.416 382.68 117.936C381.27 118.416 380.04 119.906 380.04 121.656C380.01 123.406 381.21 124.916 382.62 125.416C384.04 125.966 385.52 125.596 386.42 124.916C387.36 124.236 387.8 123.346 387.98 122.726C388.15 122.106 388.15 121.726 388.2 121.736C388.22 121.736 388.23 121.826 388.23 122.006C388.24 122.186 388.22 122.446 388.15 122.786C388.01 123.446 387.6 124.426 386.61 125.196C385.66 125.966 384.04 126.426 382.45 125.836C380.88 125.306 379.52 123.626 379.55 121.656C379.55 119.696 380.94 118.036 382.52 117.526C384.11 116.966 385.72 117.446 386.66 118.236C387.64 119.026 388.03 120.016 388.16 120.676C388.23 121.006 388.24 121.276 388.23 121.456C388.23 121.636 388.21 121.736 388.2 121.736Z" fill="#263238"/>
<path d="M390.451 128.995C390.351 129.085 389.441 128.235 388.411 127.105C387.381 125.975 386.621 124.985 386.721 124.895C386.821 124.805 387.731 125.655 388.761 126.785C389.791 127.915 390.551 128.905 390.451 128.995Z" fill="#263238"/>
<path d="M378.83 330.637L378.69 384.377L354.94 379.497L334.96 375.317C334.96 375.317 362.34 429.307 392.12 429.307C421.9 429.307 425.75 384.377 425.75 384.377L427.5 330.637H378.83Z" fill="#EEC6B4"/>
<path d="M502.199 191.976C499.989 193.216 497.019 191.616 496.019 189.286C495.019 186.956 495.479 184.266 496.249 181.856C497.009 179.436 498.069 177.066 498.219 174.536C498.499 169.936 495.359 165.346 490.979 163.936C495.279 160.526 495.629 153.216 491.679 149.406C489.829 147.626 487.369 146.656 485.219 145.256C483.989 144.456 482.869 143.506 481.819 142.476C483.769 142.886 485.719 143.086 487.679 142.656C490.799 141.976 493.539 139.646 494.559 136.626C495.589 133.606 494.789 130.006 492.479 127.806C490.169 125.606 486.439 125.006 483.619 126.496C480.839 127.966 479.319 130.986 477.969 133.826C477.549 134.706 477.129 135.586 476.709 136.466C472.799 131.286 469.119 125.926 463.089 124.106C457.619 122.456 451.739 124.296 446.039 123.886C441.889 123.586 437.899 122.086 433.769 121.636C429.629 121.186 424.919 122.066 422.479 125.436C421.049 127.416 420.589 129.976 419.139 131.936C416.139 135.996 409.689 136.546 407.219 140.946C405.219 144.526 406.759 149.046 405.899 153.056C404.959 157.416 401.369 160.606 398.429 163.956C395.479 167.306 392.929 171.906 394.579 176.056C396.029 179.696 400.279 181.666 401.669 185.336C402.679 188.016 401.939 190.986 401.889 193.846C401.839 196.706 402.989 200.106 405.769 200.746L437.499 209.126C448.429 213.576 459.699 218.086 471.499 218.066C483.299 218.046 495.889 212.386 500.549 201.546C498.849 201.476 497.179 200.736 495.989 199.506C499.049 198.116 501.409 195.246 502.199 191.976Z" fill="#263238"/>
<path d="M476.189 201.927C478.809 193.877 481.389 185.767 482.579 177.387C483.769 169.007 483.519 160.277 480.569 152.337C480.119 151.137 476.309 143.067 475.039 143.197C474.129 143.287 476.469 150.817 476.009 151.607C471.609 159.167 470.409 168.267 471.109 176.987C471.819 185.717 473.629 193.557 476.189 201.927Z" fill="#263238"/>
<path d="M448.169 272.266C461.289 271.986 476.179 243.316 476.179 243.316L477.029 169.646C477.719 148.436 465.949 130.346 444.719 130.246L442.759 130.346C423.019 131.406 407.389 147.446 406.849 167.206C406.359 185.596 406.039 205.926 406.689 215.736C408.029 236.056 428.539 238.136 428.539 238.136C428.589 238.136 428.649 242.856 428.719 248.836C428.859 262.256 442.909 272.716 448.169 272.266Z" fill="#EEC6B4"/>
<path d="M428.539 238.137C428.539 238.137 441.399 238.197 454.599 228.887C454.599 228.887 448.939 244.027 428.549 243.277L428.539 238.137Z" fill="#7F6358"/>
<path d="M415.628 183.167C415.658 184.707 416.978 185.947 418.588 185.947C420.188 185.947 421.468 184.707 421.438 183.167C421.408 181.627 420.088 180.387 418.488 180.387C416.878 180.387 415.598 181.637 415.628 183.167Z" fill="#263238"/>
<path d="M411.649 175.416C412.029 175.776 414.139 174.026 417.269 173.866C420.389 173.666 422.769 175.146 423.089 174.746C423.249 174.566 422.839 173.906 421.809 173.226C420.789 172.556 419.069 171.936 417.129 172.056C415.179 172.176 413.579 172.976 412.679 173.756C411.749 174.556 411.459 175.256 411.649 175.416Z" fill="#263238"/>
<path d="M443.779 182.417C443.809 183.957 445.129 185.197 446.739 185.197C448.339 185.197 449.619 183.957 449.589 182.417C449.559 180.877 448.239 179.637 446.629 179.637C445.029 179.637 443.749 180.887 443.779 182.417Z" fill="#263238"/>
<path d="M442.329 175.037C442.709 175.397 444.829 173.647 447.949 173.487C451.069 173.287 453.449 174.767 453.769 174.367C453.929 174.187 453.529 173.527 452.489 172.847C451.469 172.177 449.749 171.557 447.809 171.677C445.859 171.797 444.259 172.597 443.359 173.377C442.439 174.177 442.149 174.877 442.329 175.037Z" fill="#263238"/>
<path d="M432.409 199.656C432.419 199.476 430.449 199.246 427.279 199.016C426.479 198.976 425.709 198.856 425.549 198.316C425.329 197.746 425.619 196.876 425.959 195.926C426.609 193.956 427.279 191.886 427.989 189.726C430.799 180.896 432.789 173.656 432.439 173.546C432.079 173.436 429.509 180.506 426.699 189.326C426.029 191.506 425.379 193.576 424.769 195.556C424.519 196.476 424.049 197.536 424.519 198.706C424.769 199.286 425.379 199.696 425.889 199.806C426.409 199.936 426.859 199.916 427.259 199.926C430.439 199.926 432.399 199.836 432.409 199.656Z" fill="#263238"/>
<path d="M441.719 201.327C441.209 201.327 441.389 204.717 438.609 207.277C435.839 209.847 432.199 209.657 432.199 210.137C432.159 210.357 433.039 210.757 434.569 210.717C436.069 210.687 438.229 210.087 439.929 208.517C441.619 206.947 442.279 204.937 442.319 203.537C442.379 202.117 441.949 201.297 441.719 201.327Z" fill="#263238"/>
<path d="M441.818 162.347C442.168 163.177 445.268 162.607 448.958 162.857C452.658 163.027 455.668 163.947 456.118 163.157C456.318 162.777 455.758 162.007 454.518 161.247C453.288 160.487 451.358 159.807 449.138 159.687C446.928 159.567 444.928 160.017 443.618 160.637C442.308 161.247 441.668 161.957 441.818 162.347Z" fill="#263238"/>
<path d="M412.379 164.957C412.969 165.637 415.079 164.787 417.669 164.607C420.249 164.347 422.479 164.827 422.939 164.057C423.139 163.687 422.759 162.997 421.759 162.367C420.779 161.747 419.169 161.287 417.399 161.437C415.619 161.587 414.119 162.317 413.259 163.087C412.379 163.877 412.119 164.627 412.379 164.957Z" fill="#263238"/>
<path d="M476.169 184.786C476.509 184.616 489.919 179.906 490.219 193.836C490.519 207.766 476.479 205.196 476.439 204.796C476.419 204.396 476.169 184.786 476.169 184.786Z" fill="#EEC6B4"/>
<path d="M480.589 199.427C480.649 199.377 480.839 199.587 481.249 199.767C481.649 199.937 482.339 200.057 483.059 199.767C484.519 199.197 485.709 196.837 485.719 194.317C485.729 193.047 485.439 191.847 484.969 190.857C484.519 189.847 483.849 189.147 483.099 189.037C482.359 188.887 481.839 189.337 481.679 189.737C481.499 190.127 481.599 190.407 481.519 190.437C481.479 190.477 481.219 190.207 481.319 189.637C481.369 189.357 481.529 189.027 481.849 188.757C482.179 188.477 482.669 188.327 483.179 188.377C484.259 188.427 485.239 189.397 485.759 190.477C486.339 191.567 486.689 192.917 486.689 194.337C486.659 197.147 485.279 199.807 483.279 200.427C482.309 200.707 481.479 200.427 481.049 200.107C480.619 199.757 480.539 199.447 480.589 199.427Z" fill="#7F6358"/>
<path d="M415.569 144.017C413.299 142.807 419.969 135.417 425.479 132.827C433.799 128.917 446.559 126.417 454.309 128.507C463.639 131.027 471.419 135.547 476.189 143.947C480.969 152.347 482.849 162.177 482.699 171.847C482.659 174.797 482.389 177.867 480.849 180.387C478.939 183.487 475.239 185.477 475.449 189.727C475.529 191.277 475.109 192.847 474.059 193.997C471.549 196.737 468.399 194.237 466.929 191.697C463.799 186.277 463.369 179.767 463.019 173.527C462.769 169.087 462.529 164.547 463.729 160.267C464.379 157.937 465.449 155.727 465.969 153.367C466.489 151.007 466.389 148.327 464.889 146.427C464.649 146.117 464.249 145.727 463.739 145.297C459.749 141.887 454.219 140.927 449.289 142.737C441.479 145.617 428.139 149.927 424.609 147.307C419.529 143.537 418.289 141.057 418.289 141.057L415.569 144.017Z" fill="#263238"/>
<path d="M453.548 126.626C445.858 124.166 437.148 124.406 430.028 128.216C426.248 130.236 422.858 133.436 421.748 137.576C420.638 141.716 422.468 146.766 426.458 148.336L426.738 148.506C432.708 150.426 436.558 149.586 442.458 147.456C447.418 145.666 451.818 142.536 456.788 140.766C462.078 138.886 467.928 138.646 473.348 140.076C467.948 134.076 461.238 129.096 453.548 126.626Z" fill="#263238"/>
<path d="M480.039 140.407C479.919 140.517 478.799 139.177 476.539 137.607C475.409 136.837 473.999 135.987 472.309 135.347C470.639 134.707 468.679 134.237 466.649 134.397C462.509 134.787 459.059 136.717 456.939 138.397C454.789 140.107 453.789 141.537 453.649 141.437C453.599 141.407 453.799 141.007 454.259 140.367C454.709 139.717 455.459 138.837 456.519 137.887C458.619 136.007 462.159 133.887 466.579 133.457C468.809 133.277 470.899 133.817 472.639 134.537C474.389 135.257 475.819 136.197 476.939 137.067C479.159 138.837 480.119 140.347 480.039 140.407Z" fill="#455A64"/>
<path d="M481.429 145.336C481.529 145.356 481.289 146.926 480.369 149.316C479.459 151.696 477.739 154.846 475.149 157.776C472.549 160.696 469.619 162.776 467.369 163.966C465.109 165.166 463.579 165.586 463.549 165.486C463.389 165.216 469.399 162.936 474.449 157.156C479.589 151.446 481.139 145.206 481.429 145.336Z" fill="#455A64"/>
<path d="M487.099 147.596C487.159 147.596 487.2 148.166 487.16 149.186C487.12 150.206 486.95 151.676 486.55 153.466C485.77 157.026 483.82 161.876 480.11 166.126C476.4 170.376 471.86 172.976 468.45 174.226C466.74 174.866 465.3 175.236 464.29 175.416C463.29 175.596 462.72 175.636 462.71 175.576C462.67 175.416 464.9 175.026 468.2 173.616C471.48 172.236 475.82 169.626 479.41 165.506C483 161.396 484.99 156.736 485.91 153.296C486.85 149.836 486.929 147.576 487.099 147.596Z" fill="#455A64"/>
<path d="M437.599 125.357C437.629 125.507 436.159 125.857 433.909 126.747C431.669 127.637 428.689 129.187 425.839 131.517C423.009 133.857 420.909 136.487 419.619 138.527C418.309 140.557 417.689 141.947 417.549 141.887C417.459 141.857 417.859 140.367 419.059 138.197C420.239 136.027 422.329 133.237 425.259 130.807C428.199 128.397 431.339 126.887 433.689 126.137C436.049 125.377 437.579 125.267 437.599 125.357Z" fill="#455A64"/>
<path d="M491.469 127.107C491.699 127.097 491.089 131.147 487.939 134.857C484.829 138.607 480.949 139.907 480.919 139.677C480.779 139.417 484.289 137.817 487.229 134.257C490.219 130.747 491.189 127.017 491.469 127.107Z" fill="#455A64"/>
<path d="M343.48 375.735L351.74 370.665C353.14 369.805 354.74 369.355 356.38 369.355H372.37L388.89 384.395L393.82 386.865L391.99 412.835L381.25 411.525C381.25 411.525 358.32 412.515 356.1 411.035C353.88 409.555 350.67 404.875 350.67 404.875C350.67 404.875 338.09 400.805 336.86 399.695C332.19 395.505 334.08 394.505 334.08 394.505L331.93 393.525C331.53 394.285 328.4 389.185 328.72 386.625C328.91 385.135 328.47 385.145 328.47 385.145C328.47 385.145 325.1 383.365 324.52 379.455C324.29 377.935 330.51 379.025 330.51 379.025L346.04 379.235L343.48 375.735Z" fill="#EEC6B4"/>
<path d="M357.29 378.886L342.68 358.996C341.61 357.536 339.9 356.666 338.08 356.666H309.2C308.04 356.666 307.1 357.606 307.1 358.766C307.1 359.266 307.28 359.756 307.61 360.136L324.16 379.346L357.29 378.886Z" fill="#455A64"/>
<path d="M350.21 387.036C350.22 387.126 348.98 387.336 346.95 387.466C344.93 387.596 342.11 387.626 339.02 387.356C335.93 387.086 333.16 386.586 331.19 386.106C329.22 385.626 328.03 385.206 328.05 385.126C328.08 385.026 329.3 385.276 331.29 385.626C333.27 385.976 336.02 386.396 339.08 386.666C342.14 386.926 344.92 386.986 346.93 386.976C348.95 386.966 350.2 386.926 350.21 387.036Z" fill="#7F6358"/>
<path d="M354.359 395.747C354.369 395.837 353.129 396.047 351.099 396.177C349.069 396.307 346.259 396.337 343.169 396.067C340.079 395.797 337.309 395.297 335.339 394.817C333.369 394.337 332.179 393.917 332.199 393.837C332.229 393.737 333.449 393.987 335.439 394.337C337.419 394.687 340.169 395.107 343.229 395.377C346.289 395.637 349.069 395.697 351.079 395.687C353.099 395.677 354.349 395.637 354.359 395.747Z" fill="#7F6358"/>
<path d="M324.529 379.455C324.589 379.445 324.589 380.125 325.009 381.275C325.419 382.395 326.489 384.025 328.549 384.975L328.659 385.025V385.145C328.659 386.675 328.889 388.475 329.789 390.225C330.649 391.965 332.219 393.675 334.299 394.635L334.569 394.755L334.449 395.005C334.149 395.625 334.129 396.335 334.429 396.985C334.719 397.635 335.249 398.215 335.849 398.715C337.079 399.715 338.579 400.505 340.169 401.195C343.369 402.575 346.969 403.645 350.749 404.515L350.889 404.545L350.969 404.665C351.839 405.995 352.979 407.195 354.219 408.315C355.429 409.465 356.829 410.365 358.459 410.815C359.679 411.185 360.929 411.175 362.229 411.205C363.509 411.235 364.779 411.275 366.029 411.305C368.539 411.375 370.979 411.435 373.349 411.495C378.079 411.625 382.519 411.755 386.549 411.865H386.579H386.599C393.079 413.185 398.479 414.285 402.329 415.075C404.159 415.465 405.619 415.785 406.699 416.015C407.159 416.125 407.539 416.215 407.839 416.285C408.099 416.355 408.229 416.395 408.229 416.405C408.229 416.415 408.089 416.405 407.829 416.375C407.519 416.325 407.129 416.265 406.669 416.195C405.579 416.005 404.109 415.745 402.269 415.415C398.399 414.685 392.989 413.675 386.489 412.455L386.539 412.465C382.509 412.375 378.069 412.285 373.339 412.185C370.969 412.125 368.519 412.075 366.019 412.015C364.769 411.985 363.499 411.955 362.219 411.925C360.959 411.895 359.589 411.905 358.279 411.515C356.549 411.045 354.989 410.025 353.759 408.855C352.499 407.705 351.319 406.475 350.399 405.065L350.619 405.215C346.779 404.325 343.179 403.235 339.919 401.805C338.299 401.085 336.769 400.275 335.469 399.195C334.829 398.645 334.249 398.015 333.909 397.235C333.549 396.455 333.589 395.505 333.959 394.785L334.109 395.155C331.849 394.075 330.269 392.285 329.389 390.435C328.479 388.575 328.279 386.705 328.319 385.135L328.429 385.305C326.249 384.235 325.219 382.505 324.839 381.335C324.449 380.135 324.529 379.455 324.529 379.455Z" fill="#7F6358"/>
<path d="M359.089 403.395C359.169 403.555 357.229 404.545 354.599 404.885C351.969 405.245 349.849 404.805 349.879 404.625C349.899 404.415 351.989 404.535 354.509 404.185C357.029 403.865 359.009 403.205 359.089 403.395Z" fill="#7F6358"/>
<path d="M366.51 378.857C366.52 379.047 363.33 379.327 359.4 379.467C355.47 379.607 352.27 379.567 352.26 379.377C352.25 379.187 355.44 378.907 359.37 378.767C363.31 378.617 366.51 378.657 366.51 378.857Z" fill="#7F6358"/>
<path d="M393.529 384.736C393.549 384.766 393.229 385.026 392.519 385.136C391.829 385.246 390.739 385.126 389.639 384.496C388.519 383.876 387.479 382.846 386.269 381.796C385.039 380.716 383.719 379.566 382.339 378.356C379.609 376.016 377.149 373.896 375.129 372.166C373.279 370.586 372.149 369.596 372.209 369.516C372.269 369.446 373.509 370.296 375.439 371.786C377.369 373.266 379.989 375.386 382.789 377.826C384.189 379.046 385.509 380.226 386.689 381.316C387.879 382.406 388.879 383.456 389.879 384.066C390.869 384.706 391.829 384.886 392.479 384.866C393.159 384.836 393.509 384.676 393.529 384.736Z" fill="#7F6358"/>
<path d="M354.21 379.315C354.2 379.325 354.06 379.175 353.82 378.885C353.55 378.545 353.2 378.125 352.78 377.595C351.86 376.405 350.59 374.785 349.05 372.805C347.48 370.755 345.62 368.335 343.57 365.665C342.54 364.315 341.47 362.905 340.35 361.445C339.8 360.765 339.04 360.235 338.19 359.935C337.76 359.785 337.31 359.695 336.86 359.665C336.41 359.645 335.9 359.655 335.42 359.655C327.63 359.625 320.58 359.595 315.4 359.575C312.89 359.545 310.84 359.515 309.33 359.495C308.66 359.475 308.11 359.455 307.68 359.445C307.3 359.425 307.1 359.415 307.1 359.395C307.1 359.375 307.3 359.355 307.68 359.345C308.11 359.335 308.66 359.315 309.33 359.295C310.83 359.275 312.89 359.245 315.4 359.215C320.59 359.195 327.64 359.165 335.42 359.135C335.92 359.135 336.38 359.125 336.89 359.145C337.4 359.175 337.89 359.285 338.36 359.445C339.3 359.785 340.14 360.375 340.74 361.125C341.85 362.595 342.92 364.015 343.95 365.375C345.97 368.075 347.79 370.515 349.34 372.585C350.83 374.605 352.05 376.265 352.94 377.475C353.33 378.025 353.65 378.465 353.9 378.815C354.12 379.135 354.23 379.305 354.21 379.315Z" fill="#263238"/>
<path d="M322.799 362.496C323.289 362.126 324.069 362.226 324.449 362.706C324.829 363.186 324.739 363.976 324.259 364.356C323.779 364.736 322.999 364.656 322.609 364.186C322.219 363.716 322.289 362.926 322.759 362.526" fill="#F5F5F5"/>
<path d="M477.6 237.477L518.28 261.387L525.76 393.397L535.48 468.077H389.28C389.28 468.077 390.89 377.187 391.4 349.697C391.75 330.427 391.24 293.077 397.76 270.107C400.54 260.317 427.78 247.667 427.78 247.667C442.66 260.827 459.33 256.897 477.6 237.477Z" fill="#5E64FF"/>
<path d="M531.18 435.067C531.18 435.207 499.61 435.327 460.68 435.327C421.74 435.327 390.17 435.207 390.17 435.067C390.17 434.927 421.73 434.807 460.68 434.807C499.62 434.807 531.18 434.917 531.18 435.067Z" fill="white"/>
<g opacity="0.3">
<path opacity="0.3" d="M390.09 412.567C401.41 422.047 419 427.197 433.48 430.117C447.96 433.037 462.75 434.087 477.27 436.787C487.43 438.677 498.07 441.337 507.86 438.037C517.63 434.747 524.98 425.247 525.72 414.967C525.77 414.277 525.76 413.497 525.28 412.997C524.77 412.467 523.94 412.467 523.2 412.497C479.5 414.447 433.23 414.177 390.09 412.567Z" fill="black"/>
</g>
<path d="M382.35 385.248H484.51L485.01 331.418L532.15 325.338C532.15 325.338 532.37 380.008 532.37 397.938C532.37 419.458 513.77 434.418 498.15 432.108C482.54 429.798 382.36 411.148 382.36 411.148V385.248H382.35Z" fill="#EEC6B4"/>
<path d="M535.419 336.517L480.479 342.217V277.757C480.479 277.757 485.879 255.977 504.849 256.887C523.829 257.797 535.02 278.327 535.41 297.157C535.81 315.987 535.419 336.517 535.419 336.517Z" fill="#5E64FF"/>
<path d="M403.56 262.537C403.56 262.537 385.95 274.137 381.23 286.917C376.28 300.327 369.33 343.777 369.33 343.777H394L403.56 262.537Z" fill="#5E64FF"/>
<path d="M480.01 280.326C480.06 280.326 480.06 281.166 480.01 282.676C479.96 284.306 479.89 286.466 479.81 289.076C479.64 294.486 479.48 301.946 479.5 310.196C479.53 318.446 479.74 325.916 479.94 331.326C480.04 333.936 480.12 336.096 480.18 337.726C480.23 339.236 480.24 340.076 480.19 340.076C480.14 340.076 480.04 339.246 479.91 337.736C479.77 336.226 479.61 334.046 479.45 331.346C479.12 325.946 478.83 318.466 478.8 310.196C478.78 301.936 479.02 294.456 479.32 289.046C479.47 286.346 479.61 284.156 479.74 282.646C479.87 281.156 479.96 280.326 480.01 280.326Z" fill="#263238"/>
<path d="M507.68 257.936C507.66 258.066 505.84 257.576 502.86 257.636C499.91 257.666 495.74 258.426 491.88 260.796C488.02 263.166 485.45 266.536 484.08 269.156C482.69 271.786 482.3 273.626 482.17 273.586C482.13 273.576 482.19 273.106 482.39 272.286C482.59 271.466 482.98 270.296 483.64 268.926C484.92 266.196 487.51 262.646 491.51 260.196C495.51 257.746 499.84 257.046 502.86 257.136C504.38 257.176 505.6 257.356 506.42 257.546C507.25 257.736 507.69 257.896 507.68 257.936Z" fill="#263238"/>
<path d="M392.25 292.896C392.27 292.896 392.3 293.146 392.32 293.626C392.34 294.186 392.36 294.876 392.38 295.716C392.42 297.526 392.44 300.146 392.44 303.386C392.45 309.866 392.34 318.816 392.14 328.696C391.95 338.536 391.77 347.436 391.64 353.996C391.57 357.156 391.52 359.756 391.48 361.666C391.45 362.506 391.43 363.196 391.41 363.746C391.39 364.226 391.36 364.476 391.34 364.476C391.32 364.476 391.29 364.226 391.27 363.746C391.25 363.186 391.23 362.496 391.21 361.656C391.17 359.846 391.15 357.226 391.15 353.986C391.14 347.506 391.25 338.556 391.45 328.676C391.64 318.846 391.82 309.946 391.95 303.376C392.02 300.216 392.07 297.616 392.11 295.706C392.14 294.866 392.16 294.176 392.18 293.616C392.2 293.146 392.22 292.896 392.25 292.896Z" fill="#263238"/>
<path d="M391.62 314.486C391.62 314.626 387.87 314.716 383.26 314.676C378.64 314.636 374.9 314.486 374.9 314.346C374.9 314.206 378.65 314.116 383.27 314.156C387.88 314.186 391.63 314.336 391.62 314.486Z" fill="white"/>
<path d="M479.08 299.576C479.08 299.716 460.11 299.836 436.72 299.836C413.32 299.836 394.36 299.716 394.36 299.576C394.36 299.436 413.32 299.316 436.72 299.316C460.12 299.316 479.08 299.436 479.08 299.576Z" fill="white"/>
<path d="M534.23 290.787C534.23 290.807 534.04 290.797 533.67 290.777C533.25 290.747 532.73 290.697 532.09 290.647C530.65 290.527 528.68 290.357 526.28 290.147C521.38 289.737 514.59 289.287 507.09 289.087C499.59 288.887 492.79 288.957 487.87 289.097C485.47 289.177 483.49 289.237 482.05 289.277C481.41 289.297 480.89 289.307 480.47 289.317C480.11 289.317 479.92 289.317 479.92 289.297C479.92 289.277 480.11 289.247 480.47 289.217C480.89 289.177 481.41 289.137 482.05 289.077C483.42 288.967 485.41 288.847 487.87 288.727C492.79 288.497 499.6 288.367 507.12 288.567C514.64 288.777 521.43 289.287 526.33 289.787C528.78 290.037 530.76 290.267 532.12 290.457C532.75 290.547 533.27 290.627 533.69 290.687C534.04 290.727 534.23 290.767 534.23 290.787Z" fill="white"/>
<path d="M534.75 328.977C534.75 329.117 522.34 328.957 507.04 328.607C491.74 328.257 479.34 327.867 479.34 327.717C479.34 327.577 491.75 327.737 507.05 328.087C522.35 328.437 534.75 328.837 534.75 328.977Z" fill="white"/>
<path d="M484.84 267.496C484.84 267.636 465.26 267.756 441.11 267.756C416.95 267.756 397.38 267.636 397.38 267.496C397.38 267.356 416.96 267.236 441.11 267.236C465.26 267.236 484.84 267.356 484.84 267.496Z" fill="white"/>
<path d="M479.36 340.156C479.36 340.296 459.72 340.416 435.49 340.416C411.26 340.416 391.62 340.296 391.62 340.156C391.62 340.016 411.26 339.896 435.49 339.896C459.72 339.896 479.36 340.006 479.36 340.156Z" fill="white"/>
<path d="M485.66 372.237C485.66 372.377 464.3 372.497 437.96 372.497C411.61 372.497 390.25 372.377 390.25 372.237C390.25 372.097 411.61 371.977 437.96 371.977C464.3 371.977 485.66 372.087 485.66 372.237Z" fill="white"/>
<path d="M533.95 464.737C533.95 464.877 501.74 464.997 462.03 464.997C422.3 464.997 390.1 464.877 390.1 464.737C390.1 464.597 422.3 464.477 462.03 464.477C501.74 464.477 533.95 464.597 533.95 464.737Z" fill="white"/>
<g opacity="0.3">
<path opacity="0.3" d="M479.81 342.837C479.17 330.097 479.62 318.177 478.98 305.447C474.64 324.117 472.58 343.317 472.88 362.487C472.95 367.037 473.17 371.667 474.64 375.977C476.11 380.287 480.18 383.967 484.34 385.817L484.75 342.337C482.87 342.427 481.69 342.747 479.81 342.837Z" fill="black"/>
</g>
<path d="M153.041 421.086L145.831 468.456H103.941L94.2207 421.766L153.041 421.086Z" fill="#FF5E5E"/>
<path d="M100.08 451.447C100.08 451.587 110.81 451.697 124.05 451.697C137.29 451.697 148.02 451.587 148.02 451.447C148.02 451.307 137.29 451.197 124.05 451.197C110.81 451.207 100.08 451.317 100.08 451.447Z" fill="#FAFAFA"/>
<path d="M99.9199 449.117C99.9199 449.257 110.73 449.367 124.05 449.367C137.38 449.367 148.18 449.257 148.18 449.117C148.18 448.977 137.38 448.867 124.05 448.867C110.72 448.877 99.9199 448.987 99.9199 449.117Z" fill="#FAFAFA"/>
<path d="M100 446.486C100 446.626 110.8 446.736 124.13 446.736C137.46 446.736 148.26 446.626 148.26 446.486C148.26 446.346 137.46 446.236 124.13 446.236C110.8 446.236 100 446.346 100 446.486Z" fill="#FAFAFA"/>
<path d="M141.019 465.756C141.149 465.776 141.729 463.106 142.299 459.786C142.879 456.466 143.229 453.756 143.099 453.736C142.969 453.716 142.389 456.386 141.819 459.706C141.239 463.026 140.879 465.736 141.019 465.756Z" fill="#FAFAFA"/>
<path d="M138.17 465.256C138.31 465.256 138.47 462.646 138.69 459.436C138.91 456.226 139.1 453.616 138.96 453.596C138.83 453.576 138.41 456.176 138.2 459.396C137.97 462.626 138.03 465.256 138.17 465.256Z" fill="#FAFAFA"/>
<path d="M132.97 465.257C133.1 465.277 133.67 462.617 134.06 459.287C134.45 455.957 134.51 453.237 134.38 453.227C134.24 453.217 133.96 455.917 133.57 459.227C133.19 462.547 132.84 465.227 132.97 465.257Z" fill="#FAFAFA"/>
<path d="M129.33 465.505C129.46 465.515 129.8 462.805 129.91 459.445C130.02 456.075 129.86 453.355 129.72 453.355C129.58 453.355 129.53 456.075 129.41 459.425C129.31 462.775 129.19 465.485 129.33 465.505Z" fill="#FAFAFA"/>
<path d="M122.87 465.256C123.01 465.256 123.2 462.686 123.31 459.506C123.42 456.326 123.4 453.736 123.26 453.736C123.12 453.736 122.93 456.306 122.82 459.496C122.72 462.666 122.74 465.246 122.87 465.256Z" fill="#FAFAFA"/>
<path d="M118.16 465.505C118.3 465.505 118.38 462.835 118.36 459.555C118.33 456.265 118.2 453.605 118.07 453.605C117.93 453.605 117.85 456.275 117.87 459.555C117.89 462.835 118.03 465.505 118.16 465.505Z" fill="#FAFAFA"/>
<path d="M113.74 464.867C113.88 464.857 113.72 462.067 113.38 458.647C113.05 455.227 112.67 452.457 112.53 452.467C112.39 452.477 112.55 455.267 112.89 458.687C113.23 462.117 113.61 464.887 113.74 464.867Z" fill="#FAFAFA"/>
<path d="M108.04 464.246C108.17 464.226 107.97 461.836 107.34 458.956C106.72 456.066 105.91 453.806 105.78 453.846C105.65 453.886 106.24 456.196 106.86 459.056C107.48 461.926 107.9 464.266 108.04 464.246Z" fill="#FAFAFA"/>
<path d="M112.081 327.596C112.071 327.596 112.091 327.676 112.131 327.826C112.181 328.006 112.251 328.226 112.331 328.496C112.521 329.116 112.791 329.976 113.131 331.056C113.491 332.166 113.921 333.516 114.361 335.106C114.811 336.696 115.371 338.486 115.871 340.506C116.401 342.516 116.981 344.716 117.501 347.106C118.081 349.476 118.571 352.046 119.121 354.736C120.121 360.136 121.041 366.106 121.691 372.416C122.301 378.726 122.591 384.766 122.671 390.256C122.671 393.006 122.701 395.616 122.591 398.056C122.551 400.496 122.421 402.776 122.291 404.846C122.201 406.926 122.001 408.796 121.881 410.436C121.761 412.086 121.611 413.496 121.481 414.656C121.361 415.786 121.271 416.676 121.201 417.316C121.181 417.596 121.161 417.826 121.141 418.006C121.131 418.166 121.131 418.246 121.141 418.246C121.151 418.246 121.171 418.166 121.191 418.016C121.221 417.836 121.251 417.606 121.301 417.326C121.391 416.676 121.511 415.796 121.671 414.676C121.831 413.526 122.011 412.106 122.161 410.466C122.311 408.816 122.531 406.946 122.651 404.866C122.801 402.786 122.951 400.516 123.011 398.066C123.131 395.616 123.121 393.006 123.131 390.246C123.071 384.736 122.801 378.686 122.191 372.356C121.541 366.036 120.611 360.046 119.581 354.636C119.021 351.936 118.521 349.376 117.921 346.996C117.381 344.606 116.781 342.406 116.231 340.396C115.711 338.376 115.121 336.586 114.651 335.006C114.181 333.416 113.731 332.066 113.341 330.976C112.971 329.906 112.671 329.066 112.461 328.446C112.361 328.186 112.281 327.966 112.221 327.796C112.121 327.666 112.081 327.596 112.081 327.596Z" fill="#263238"/>
<path d="M119.641 356.936C118.511 353.556 116.161 350.586 113.131 348.716C112.091 348.076 110.781 347.556 109.691 348.086C108.231 348.796 108.111 350.846 108.551 352.416C109.281 355.046 111.001 357.386 113.291 358.876C115.581 360.366 117.701 361.066 120.401 360.666" fill="#263238"/>
<path d="M122.18 376.746C121.1 372.656 117.84 366.846 114.45 364.316C113.91 363.916 113.34 363.536 112.69 363.376C112.04 363.216 111.29 363.316 110.81 363.786C110.12 364.446 110.19 365.566 110.39 366.496C111.68 372.456 116.65 377.466 122.61 378.796" fill="#263238"/>
<path d="M122.881 394.176C121.211 390.296 118.491 386.866 115.081 384.366C114.281 383.776 113.331 383.216 112.361 383.396C110.881 383.666 110.211 385.476 110.341 386.966C110.611 390.046 112.961 392.526 115.401 394.436C118.021 396.496 122.611 398.146 122.611 398.146" fill="#263238"/>
<path d="M122.49 406.716C120.78 403.806 118.65 401.066 115.85 399.156C115.24 398.746 114.59 398.366 113.86 398.266C113.13 398.166 112.32 398.406 111.91 399.006C111.25 399.986 111.88 401.306 112.59 402.246C115.05 405.506 118.16 407.966 122.06 409.196" fill="#263238"/>
<path d="M122.82 401.627C125.68 398.127 128.86 394.887 132.31 391.957C132.85 391.497 133.53 391.027 134.2 391.237C134.72 391.407 135.03 391.967 135.07 392.517C135.11 393.067 134.92 393.597 134.71 394.097C132.64 399.107 127.75 403.037 122.49 404.377" fill="#263238"/>
<path d="M122.511 385.316C125.001 382.286 127.481 379.256 129.971 376.226C130.681 375.366 131.411 374.476 132.391 373.926C133.371 373.376 134.661 373.246 135.571 373.886C136.481 374.526 136.791 375.786 136.591 376.886C136.391 377.986 135.771 378.956 135.141 379.876C133.621 382.056 131.901 384.146 129.711 385.646C127.521 387.156 125.531 388.126 122.901 387.746" fill="#263238"/>
<path d="M121.48 366.946C122.93 362.616 125.55 358.686 128.98 355.686C129.55 355.186 130.19 354.686 130.93 354.546C132.42 354.256 133.87 355.506 134.35 356.946C134.89 358.566 134.52 360.396 133.67 361.886C132.82 363.366 131.53 364.556 130.17 365.596C127.66 367.516 124.85 369.026 121.88 370.076" fill="#263238"/>
<path d="M118.501 350.577C119.221 345.307 121.961 340.927 125.141 336.657C125.811 335.757 126.741 334.807 127.851 334.977C128.561 335.087 129.131 335.657 129.411 336.317C129.691 336.977 129.721 337.707 129.711 338.427C129.541 344.797 125.151 350.837 119.151 352.967" fill="#263238"/>
<path d="M116.411 342.216C116.671 339.506 116.931 336.776 116.681 334.066C116.431 331.356 115.641 328.636 113.981 326.476C113.271 325.546 112.371 324.716 111.271 324.316C110.171 323.916 108.851 324.006 107.951 324.756C107.121 325.446 106.771 326.596 106.811 327.676C106.851 328.756 107.231 329.796 107.651 330.796C109.641 335.586 112.951 340.876 116.411 342.216Z" fill="#263238"/>
<path d="M148.89 348.486C148.87 348.486 148.86 348.716 148.85 349.156C148.84 349.646 148.84 350.276 148.83 351.066C148.83 351.896 148.83 352.916 148.78 354.086C148.74 355.266 148.73 356.606 148.64 358.086C148.51 361.046 148.22 364.576 147.77 368.466C147.29 372.356 146.62 376.616 145.71 381.046C144.77 385.476 143.66 389.646 142.54 393.396C141.39 397.146 140.23 400.486 139.16 403.246C138.65 404.636 138.12 405.876 137.68 406.966C137.25 408.066 136.84 408.996 136.51 409.756C136.2 410.486 135.95 411.066 135.76 411.516C135.59 411.916 135.51 412.136 135.53 412.146C135.55 412.156 135.66 411.956 135.85 411.556C136.06 411.116 136.34 410.546 136.68 409.836C137.04 409.086 137.47 408.166 137.93 407.076C138.39 405.986 138.95 404.766 139.48 403.376C140.6 400.616 141.79 397.276 142.97 393.526C144.12 389.766 145.24 385.586 146.19 381.136C147.11 376.686 147.76 372.416 148.22 368.506C148.65 364.596 148.9 361.056 148.98 358.086C149.06 356.596 149.04 355.256 149.05 354.076C149.07 352.896 149.05 351.876 149.01 351.046C148.98 350.256 148.96 349.616 148.94 349.136C148.93 348.716 148.91 348.486 148.89 348.486Z" fill="#263238"/>
<path d="M147.721 370.085C147.681 367.535 146.721 365.015 145.061 363.085C144.491 362.425 143.711 361.785 142.851 361.915C141.701 362.085 141.181 363.455 141.141 364.615C141.071 366.565 141.741 368.525 142.981 370.035C144.221 371.545 145.511 372.475 147.441 372.785" fill="#263238"/>
<path d="M145.19 384.126C145.33 381.106 144.36 376.446 142.6 373.996C142.32 373.606 142.01 373.226 141.6 372.976C141.19 372.726 140.66 372.636 140.23 372.846C139.62 373.146 139.42 373.926 139.36 374.606C138.96 378.946 141.26 383.426 145.03 385.616" fill="#263238"/>
<path d="M141.911 396.146C141.611 393.146 140.491 390.226 138.711 387.786C138.291 387.216 137.771 386.626 137.071 386.536C136.001 386.396 135.161 387.486 134.931 388.536C134.451 390.696 135.521 392.886 136.761 394.716C138.101 396.686 140.871 398.796 140.871 398.796" fill="#263238"/>
<path d="M138.951 404.596C138.411 402.246 137.551 399.916 136.061 398.026C135.741 397.616 135.371 397.216 134.901 396.986C134.431 396.766 133.821 396.746 133.411 397.076C132.751 397.596 132.891 398.636 133.181 399.426C134.161 402.176 135.741 404.526 138.131 406.196" fill="#263238"/>
<path d="M140.27 401.196C142.97 399.426 145.83 397.906 148.81 396.656C149.27 396.466 149.84 396.286 150.25 396.576C150.57 396.806 150.66 397.256 150.57 397.636C150.48 398.016 150.23 398.336 149.98 398.636C147.49 401.606 143.32 403.226 139.45 403.006" fill="#263238"/>
<path d="M143.571 390.027C145.911 388.497 148.261 386.967 150.601 385.447C151.271 385.007 151.961 384.567 152.741 384.407C153.521 384.247 154.431 384.427 154.911 385.067C155.391 385.697 155.331 386.627 154.961 387.327C154.591 388.027 153.961 388.557 153.331 389.047C151.831 390.207 150.201 391.257 148.391 391.807C146.581 392.357 145.011 392.597 143.301 391.767" fill="#263238"/>
<path d="M146.821 377.306C148.741 374.666 151.371 372.556 154.351 371.256C154.851 371.036 155.381 370.836 155.931 370.896C157.011 371.016 157.721 372.176 157.741 373.266C157.761 374.486 157.111 375.656 156.211 376.476C155.311 377.306 154.181 377.826 153.031 378.246C150.911 379.016 148.671 379.436 146.421 379.506" fill="#263238"/>
<path d="M148.321 365.516C149.951 362.086 152.761 359.686 155.841 357.466C156.491 356.996 157.331 356.546 158.051 356.906C158.511 357.136 158.771 357.646 158.821 358.146C158.871 358.656 158.731 359.166 158.571 359.646C157.091 363.946 152.791 367.116 148.251 367.276" fill="#263238"/>
<path d="M148.701 359.376C149.461 357.586 150.231 355.786 150.641 353.886C151.051 351.986 151.101 349.966 150.431 348.136C150.141 347.356 149.711 346.596 149.051 346.086C148.391 345.576 147.471 345.356 146.691 345.666C145.971 345.956 145.491 346.666 145.291 347.416C145.091 348.166 145.121 348.956 145.191 349.726C145.511 353.396 146.631 357.716 148.701 359.376Z" fill="#263238"/>
<path d="M95.9304 348.025C95.9104 348.025 95.8904 348.255 95.8704 348.695C95.8504 349.185 95.8304 349.815 95.8004 350.605C95.7704 351.435 95.7504 352.455 95.7604 353.635C95.7704 354.815 95.7604 356.165 95.8304 357.645C95.9204 360.615 96.1704 364.155 96.5904 368.065C97.0504 371.975 97.7004 376.245 98.6204 380.695C99.5604 385.135 100.69 389.315 101.84 393.085C103.02 396.835 104.21 400.175 105.33 402.935C105.86 404.325 106.41 405.555 106.88 406.635C107.34 407.725 107.77 408.645 108.13 409.395C108.47 410.105 108.75 410.675 108.96 411.115C109.16 411.505 109.27 411.705 109.28 411.705C109.3 411.695 109.22 411.485 109.05 411.075C108.86 410.625 108.61 410.045 108.3 409.315C107.96 408.555 107.56 407.625 107.13 406.525C106.69 405.435 106.16 404.195 105.65 402.805C104.58 400.035 103.43 396.695 102.27 392.955C101.15 389.195 100.04 385.025 99.1004 380.605C98.1804 376.175 97.5204 371.915 97.0404 368.025C96.5904 364.135 96.3004 360.605 96.1704 357.645C96.0704 356.165 96.0604 354.825 96.0304 353.645C95.9904 352.465 95.9804 351.455 95.9804 350.625C95.9704 349.835 95.9604 349.195 95.9604 348.715C95.9704 348.255 95.9504 348.025 95.9304 348.025Z" fill="#455A64"/>
<path d="M97.1006 369.626C97.1406 367.076 98.1006 364.556 99.7606 362.626C100.331 361.966 101.111 361.326 101.971 361.456C103.121 361.626 103.641 362.996 103.681 364.156C103.751 366.106 103.081 368.066 101.841 369.576C100.601 371.086 99.3106 372.016 97.3806 372.326" fill="#455A64"/>
<path d="M99.6305 383.667C99.4905 380.647 100.461 375.987 102.221 373.537C102.501 373.147 102.811 372.767 103.221 372.517C103.631 372.267 104.161 372.177 104.591 372.387C105.201 372.687 105.401 373.467 105.461 374.147C105.861 378.487 103.561 382.967 99.7905 385.157" fill="#455A64"/>
<path d="M102.91 395.687C103.21 392.687 104.33 389.767 106.11 387.327C106.53 386.757 107.05 386.167 107.75 386.077C108.82 385.937 109.66 387.027 109.89 388.077C110.37 390.237 109.3 392.427 108.06 394.257C106.72 396.227 103.95 398.337 103.95 398.337" fill="#455A64"/>
<path d="M105.88 404.135C106.42 401.785 107.28 399.455 108.77 397.565C109.09 397.155 109.46 396.755 109.93 396.525C110.4 396.305 111.01 396.285 111.42 396.615C112.08 397.135 111.94 398.175 111.65 398.965C110.67 401.715 109.09 404.065 106.7 405.735" fill="#455A64"/>
<path d="M104.561 400.735C101.861 398.965 99.0005 397.445 96.0205 396.195C95.5605 396.005 94.9905 395.825 94.5805 396.115C94.2605 396.345 94.1705 396.795 94.2605 397.175C94.3505 397.555 94.6005 397.875 94.8505 398.175C97.3405 401.145 101.511 402.765 105.381 402.545" fill="#455A64"/>
<path d="M101.25 389.566C98.9102 388.036 96.5602 386.506 94.2202 384.986C93.5502 384.546 92.8602 384.106 92.0802 383.946C91.3002 383.786 90.3902 383.966 89.9102 384.606C89.4302 385.236 89.4902 386.166 89.8602 386.866C90.2302 387.566 90.8602 388.096 91.4902 388.586C92.9902 389.746 94.6202 390.796 96.4302 391.346C98.2402 391.896 99.8102 392.136 101.52 391.306" fill="#455A64"/>
<path d="M98.0005 376.847C96.0805 374.207 93.4505 372.097 90.4705 370.797C89.9705 370.577 89.4405 370.377 88.8905 370.437C87.8105 370.557 87.1005 371.717 87.0805 372.807C87.0605 374.027 87.7105 375.197 88.6105 376.017C89.5105 376.847 90.6405 377.367 91.7905 377.787C93.9105 378.557 96.1505 378.977 98.4005 379.047" fill="#455A64"/>
<path d="M96.5103 365.057C94.8803 361.627 92.0703 359.227 88.9903 357.007C88.3403 356.537 87.5003 356.087 86.7803 356.447C86.3203 356.677 86.0603 357.187 86.0103 357.687C85.9603 358.197 86.1003 358.707 86.2603 359.187C87.7403 363.487 92.0403 366.657 96.5803 366.817" fill="#455A64"/>
<path d="M96.1299 358.916C95.3699 357.126 94.5999 355.326 94.1899 353.426C93.7799 351.526 93.7299 349.506 94.3999 347.676C94.6899 346.896 95.1199 346.136 95.7799 345.626C96.4399 345.116 97.3599 344.896 98.1399 345.216C98.8599 345.506 99.3399 346.216 99.5399 346.966C99.7399 347.716 99.7099 348.506 99.6399 349.276C99.3099 352.946 98.1999 357.256 96.1299 358.916Z" fill="#455A64"/>
<path d="M157.84 411.707V420.567C157.84 422.497 156.28 424.057 154.35 424.057H93.7C91.77 424.057 90.21 422.497 90.21 420.567V411.707H157.84Z" fill="#FF5E5E"/>
<g opacity="0.4">
<g opacity="0.4">
<path opacity="0.4" d="M152.58 424.057L152.08 426.877L96.1202 430.867L94.7002 424.057H152.58Z" fill="black"/>
</g>
</g>
<path d="M562.099 468.266C562.099 468.406 463.109 468.526 341.029 468.526C218.909 468.526 119.939 468.406 119.939 468.266C119.939 468.126 218.909 468.006 341.029 468.006C463.109 468.006 562.099 468.116 562.099 468.266Z" fill="#263238"/>
</svg>
